<?xml version="1.0" standalone="no"?>
<!DOCTYPE svg PUBLIC "-//W3C//DTD SVG 20010904//EN"
 "http://www.w3.org/TR/2001/REC-SVG-20010904/DTD/svg10.dtd">
<svg version="1.0" xmlns="http://www.w3.org/2000/svg"
 width="500.000000pt" height="500.000000pt" viewBox="0 0 500.000000 500.000000"
 preserveAspectRatio="xMidYMid meet">

<g transform="translate(0.000000,500.000000) scale(0.100000,-0.100000)"
fill="#000000" stroke="none">
<path d="M2035 3024 c-155 -17 -278 -50 -500 -134 -87 -33 -173 -60 -192 -60
-19 0 -66 -7 -105 -16 -57 -13 -81 -14 -126 -5 -30 6 -78 11 -105 11 l-49 0 6
-31 c6 -30 -7 -109 -24 -140 -7 -14 0 -16 63 -11 40 2 73 6 75 7 2 2 -6 21
-17 44 -29 56 -28 89 4 97 14 3 162 4 328 1 273 -4 322 -7 517 -36 l215 -32
605 -4 c638 -3 685 -6 1124 -60 110 -14 201 -23 203 -21 9 9 -110 50 -206 72
-117 26 -361 59 -515 70 -92 7 -99 6 -93 -10 6 -16 2 -17 -40 -12 -27 4 -66 7
-87 7 -29 -1 -67 14 -142 54 -144 78 -153 99 -15 39 92 -41 68 -18 -35 34
-112 56 -219 96 -314 119 -64 14 -478 27 -575 17z m64 -107 c5 -12 10 -51 12
-87 l4 -65 -38 3 c-48 4 -225 47 -235 57 -15 15 97 77 181 100 69 18 66 18 76
-8z m501 13 c98 -16 320 -130 252 -130 -39 0 -34 -39 8 -52 16 -5 -227 -1
-527 8 l-192 6 -5 27 c-3 14 -8 54 -11 89 l-7 62 209 0 c114 0 237 -5 273 -10z"/>
<path d="M3326 2575 c-89 -31 -136 -91 -136 -171 0 -61 12 -99 43 -132 77 -83
254 -95 360 -26 89 58 101 200 25 281 -52 55 -203 80 -292 48z m184 -80 c52
-27 74 -94 48 -150 -36 -79 -201 -87 -252 -13 -18 26 -21 90 -5 119 28 54 144
78 209 44z"/>
<path d="M840 2395 l0 -185 45 0 44 0 3 63 3 62 98 3 97 3 0 34 0 35 -101 0
-100 0 3 48 3 47 128 3 127 3 0 34 0 35 -175 0 -175 0 0 -185z"/>
<path d="M1250 2396 l0 -186 45 0 45 0 0 70 0 70 64 0 c79 0 108 -20 131 -90
l17 -50 50 0 c44 0 49 2 43 18 -4 9 -13 38 -21 64 -8 26 -25 55 -37 64 -17 12
-19 17 -8 21 50 19 74 84 49 137 -24 53 -50 61 -220 64 l-158 4 0 -186z m274
98 c21 -20 20 -43 -1 -66 -13 -15 -31 -18 -100 -18 l-83 0 0 50 0 50 84 0 c64
0 88 -4 100 -16z"/>
<path d="M1712 2441 c3 -123 5 -143 24 -168 33 -43 76 -64 151 -70 110 -9 183
21 220 90 12 24 18 66 21 160 l4 127 -51 0 -51 0 0 -120 c0 -94 -4 -126 -16
-145 -22 -33 -82 -49 -134 -35 -62 17 -70 36 -70 177 l0 123 -51 0 -51 0 4
-139z"/>
<path d="M2190 2545 c0 -33 2 -35 35 -35 l35 0 0 -115 0 -115 -35 0 c-33 0
-35 -2 -35 -35 l0 -35 120 0 120 0 0 34 c0 33 -2 35 -37 38 l-38 3 0 110 0
110 38 3 c35 3 37 5 37 38 l0 34 -120 0 -120 0 0 -35z"/>
<path d="M2460 2540 l0 -40 80 0 80 0 0 -145 0 -145 45 0 45 0 0 145 0 145 80
0 80 0 0 40 0 40 -205 0 -205 0 0 -40z"/>
<path d="M2910 2545 c0 -33 2 -35 35 -35 l35 0 0 -115 0 -115 -35 0 c-33 0
-35 -2 -35 -35 l0 -35 120 0 120 0 0 34 c0 33 -2 35 -37 38 l-38 3 0 110 0
110 38 3 c35 3 37 5 37 38 l0 34 -120 0 -120 0 0 -35z"/>
<path d="M3740 2395 l0 -185 40 0 40 0 0 128 1 127 122 -128 122 -128 48 1 47
0 0 185 0 185 -45 0 -44 0 -3 -126 -3 -126 -113 126 -114 126 -49 0 -49 0 0
-185z"/>
<path d="M1845 2150 l-470 -5 349 -7 c410 -9 1318 -8 1661 1 418 12 -701 20
-1540 11z"/>
<path d="M2183 2050 c-48 -20 -56 -78 -15 -110 34 -28 114 -24 137 6 20 27 18
68 -4 88 -23 21 -87 30 -118 16z m91 -29 c24 -27 17 -64 -15 -75 -39 -13 -78
0 -85 30 -13 53 62 87 100 45z"/>
<path d="M2340 2041 c0 -10 8 -12 30 -7 l30 6 0 -60 c0 -46 3 -60 15 -60 10 0
15 15 17 58 l3 57 33 -3 c21 -2 32 1 32 10 0 10 -20 13 -80 13 -61 0 -80 -3
-80 -14z"/>
<path d="M2570 2053 c-48 -19 -64 -68 -35 -107 23 -30 103 -34 138 -6 32 26
36 69 8 94 -20 19 -85 30 -111 19z m84 -32 c24 -27 17 -64 -15 -75 -40 -14
-78 0 -85 31 -13 51 64 84 100 44z"/>
<path d="M2748 2054 c-15 -5 -18 -17 -18 -70 0 -50 3 -64 15 -64 9 0 15 9 15
25 0 20 5 25 25 25 15 0 36 -11 49 -25 13 -14 32 -25 42 -25 16 1 14 6 -13 29
l-31 29 24 6 c17 5 24 13 24 31 0 13 -4 27 -10 30 -14 8 -102 15 -122 9z m99
-28 c3 -3 3 -12 0 -21 -4 -10 -20 -15 -47 -15 -32 0 -40 4 -40 18 0 10 3 22 8
26 7 8 70 1 79 -8z"/>
<path d="M2943 2050 c-48 -19 -17 -70 42 -70 33 0 68 -18 60 -31 -8 -12 -67
-12 -99 1 -20 7 -26 6 -26 -4 0 -28 118 -37 144 -10 31 30 13 49 -59 61 -49 8
-69 26 -40 36 8 4 35 3 60 -2 34 -6 45 -5 45 4 0 22 -85 32 -127 15z"/>
<path d="M1920 1985 c0 -51 3 -65 15 -65 11 0 15 13 16 53 l0 52 24 -52 c13
-29 30 -53 38 -53 8 0 23 20 34 45 10 25 20 45 23 45 3 0 4 -20 2 -45 -4 -39
-1 -45 15 -45 18 0 20 7 19 65 -1 61 -2 65 -24 65 -18 0 -28 -11 -46 -50 l-23
-50 -22 50 c-18 41 -26 50 -46 50 -24 0 -25 -3 -25 -65z"/>
</g>
</svg>
